# xmcd
#
# Track frame offsets:
#	150
#	11689
#	24094
#	36804
#	51024
#	62860
#	74737
#	87452
#	99205
#	107491
#	121664
#
# Disc length: 1813 seconds
#
# Revision: 0
# Processed by: cddbd v1.5.1PL0 Copyright (c) Steve Scherf et al.
# Submitted via: dBpowerAMP V4.0
#
DISCID=8507130b
DTITLE=Merle Haggard - Someday We'll Look Back
DYEAR=1971
DGENRE=Country
TTITLE0=Someday We'll Look Back
TTITLE1=Train Of Life
TTITLE2=One Sweet Hello
TTITLE3=One Row At A Time
TTITLE4=Big Time Annie's Square
TTITLE5=I'd Rather Be Gone
TTITLE6=California Cotton Fields
TTITLE7=Carolyn
TTITLE8=Tulare Dust
TTITLE9=Hunstville
TTITLE10=The Only Trouble With Me Is You
EXTD=by Sound_man73
EXTT0=
EXTT1=
EXTT2=
EXTT3=
EXTT4=
EXTT5=
EXTT6=
EXTT7=
EXTT8=
EXTT9=
EXTT10=
PLAYORDER=
